<svg width="800" height="340" viewBox="0 0 800 340" fill="none" xmlns="http://www.w3.org/2000/svg">
<path d="M1.35 16V3.4H3.024V16H1.35ZM6.91495 9.43C6.91495 10.006 7.50895 10.456 8.69695 10.78C9.14095 10.876 9.51295 10.978 9.81295 11.086C10.125 11.182 10.461 11.332 10.821 11.536C11.193 11.74 11.475 12.01 11.667 12.346C11.859 12.682 11.955 13.078 11.955 13.534C11.955 14.35 11.637 15.004 11.001 15.496C10.365 15.988 9.56095 16.234 8.58895 16.234C7.72495 16.234 6.97495 16.048 6.33895 15.676C5.71495 15.292 5.27095 14.776 5.00695 14.128L6.35695 13.354C6.50095 13.786 6.77095 14.128 7.16695 14.38C7.56295 14.632 8.03695 14.758 8.58895 14.758C9.12895 14.758 9.56095 14.656 9.88495 14.452C10.209 14.248 10.371 13.942 10.371 13.534C10.371 12.922 9.77695 12.478 8.58895 12.202C8.19295 12.094 7.89295 12.01 7.68895 11.95C7.48495 11.89 7.20295 11.782 6.84295 11.626C6.49495 11.47 6.23095 11.308 6.05095 11.14C5.87095 10.96 5.70295 10.726 5.54695 10.438C5.40295 10.138 5.33095 9.808 5.33095 9.448C5.33095 8.668 5.63095 8.026 6.23095 7.522C6.84295 7.018 7.60495 6.766 8.51695 6.766C9.24895 6.766 9.89695 6.934 10.461 7.27C11.037 7.594 11.469 8.05 11.757 8.638L10.443 9.376C10.119 8.608 9.47695 8.224 8.51695 8.224C8.06095 8.224 7.67695 8.332 7.36495 8.548C7.06495 8.764 6.91495 9.058 6.91495 9.43ZM23.5291 6.766C24.5491 6.766 25.3651 7.096 25.9771 7.756C26.6011 8.416 26.9131 9.298 26.9131 10.402V16H25.3471V10.456C25.3471 9.772 25.1671 9.238 24.8071 8.854C24.4591 8.458 23.9791 8.26 23.3671 8.26C22.6711 8.26 22.1251 8.494 21.7291 8.962C21.3451 9.418 21.1531 10.096 21.1531 10.996V16H19.5871V10.456C19.5871 9.772 19.4131 9.238 19.0651 8.854C18.7291 8.458 18.2671 8.26 17.6791 8.26C16.9951 8.26 16.4371 8.5 16.0051 8.98C15.5851 9.448 15.3751 10.12 15.3751 10.996V16H13.8091V7H15.3751V8.206C15.9871 7.246 16.8811 6.766 18.0571 6.766C19.2691 6.766 20.1511 7.276 20.7031 8.296C21.3271 7.276 22.2691 6.766 23.5291 6.766Z" fill="#3A3A3A"/>
<g filter="url(#filter0_ii_3128_1276)">
<rect y="25" width="370" height="50" rx="10" fill="#F8F8F8"/>
</g>
<rect x="0.5" y="25.5" width="369" height="49" rx="9.5" stroke="#EBEBEB"/>
<path d="M21.35 56V43.4H23.024V56H21.35ZM26.915 49.43C26.915 50.006 27.509 50.456 28.697 50.78C29.141 50.876 29.513 50.978 29.813 51.086C30.125 51.182 30.461 51.332 30.821 51.536C31.193 51.74 31.475 52.01 31.667 52.346C31.859 52.682 31.955 53.078 31.955 53.534C31.955 54.35 31.637 55.004 31.001 55.496C30.365 55.988 29.561 56.234 28.589 56.234C27.725 56.234 26.975 56.048 26.339 55.676C25.715 55.292 25.271 54.776 25.007 54.128L26.357 53.354C26.501 53.786 26.771 54.128 27.167 54.38C27.563 54.632 28.037 54.758 28.589 54.758C29.129 54.758 29.561 54.656 29.885 54.452C30.209 54.248 30.371 53.942 30.371 53.534C30.371 52.922 29.777 52.478 28.589 52.202C28.193 52.094 27.893 52.01 27.689 51.95C27.485 51.89 27.203 51.782 26.843 51.626C26.495 51.47 26.231 51.308 26.051 51.14C25.871 50.96 25.703 50.726 25.547 50.438C25.403 50.138 25.331 49.808 25.331 49.448C25.331 48.668 25.631 48.026 26.231 47.522C26.843 47.018 27.605 46.766 28.517 46.766C29.249 46.766 29.897 46.934 30.461 47.27C31.037 47.594 31.469 48.05 31.757 48.638L30.443 49.376C30.119 48.608 29.477 48.224 28.517 48.224C28.061 48.224 27.677 48.332 27.365 48.548C27.065 48.764 26.915 49.058 26.915 49.43ZM43.5291 46.766C44.5491 46.766 45.3651 47.096 45.9771 47.756C46.6011 48.416 46.9131 49.298 46.9131 50.402V56H45.3471V50.456C45.3471 49.772 45.1671 49.238 44.8071 48.854C44.4591 48.458 43.9791 48.26 43.3671 48.26C42.6711 48.26 42.1251 48.494 41.7291 48.962C41.3451 49.418 41.1531 50.096 41.1531 50.996V56H39.5871V50.456C39.5871 49.772 39.4131 49.238 39.0651 48.854C38.7291 48.458 38.2671 48.26 37.6791 48.26C36.9951 48.26 36.4371 48.5 36.0051 48.98C35.5851 49.448 35.3751 50.12 35.3751 50.996V56H33.8091V47H35.3751V48.206C35.9871 47.246 36.8811 46.766 38.0571 46.766C39.2691 46.766 40.1511 47.276 40.7031 48.296C41.3271 47.276 42.2691 46.766 43.5291 46.766ZM49.8765 45.362C49.5765 45.362 49.3245 45.26 49.1205 45.056C48.9165 44.852 48.8145 44.606 48.8145 44.318C48.8145 44.03 48.9165 43.784 49.1205 43.58C49.3245 43.364 49.5765 43.256 49.8765 43.256C50.1645 43.256 50.4105 43.364 50.6145 43.58C50.8185 43.784 50.9205 44.03 50.9205 44.318C50.9205 44.606 50.8185 44.852 50.6145 45.056C50.4105 45.26 50.1645 45.362 49.8765 45.362ZM50.6505 56H49.0845V47H50.6505V56ZM57.5216 46.766C58.5776 46.766 59.4236 47.102 60.0596 47.774C60.6956 48.434 61.0136 49.334 61.0136 50.474V56H59.4476V50.564C59.4476 49.844 59.2496 49.28 58.8536 48.872C58.4576 48.464 57.9116 48.26 57.2156 48.26C56.4116 48.26 55.7756 48.512 55.3076 49.016C54.8396 49.508 54.6056 50.246 54.6056 51.23V56H53.0396V47H54.6056V48.296C55.2296 47.276 56.2016 46.766 57.5216 46.766ZM70.6697 48.548V47H72.2177V55.622C72.2177 56.954 71.7677 57.986 70.8677 58.718C69.9557 59.462 68.8757 59.834 67.6277 59.834C66.6197 59.834 65.7497 59.642 65.0177 59.258C64.2857 58.886 63.7337 58.346 63.3617 57.638L64.7297 56.864C65.2217 57.872 66.1997 58.376 67.6637 58.376C68.5997 58.376 69.3317 58.13 69.8597 57.638C70.3997 57.146 70.6697 56.474 70.6697 55.622V54.344C69.8777 55.544 68.7497 56.144 67.2857 56.144C65.9897 56.144 64.9037 55.688 64.0277 54.776C63.1397 53.852 62.6957 52.742 62.6957 51.446C62.6957 50.15 63.1397 49.046 64.0277 48.134C64.9037 47.222 65.9897 46.766 67.2857 46.766C68.7617 46.766 69.8897 47.36 70.6697 48.548ZM70.6697 51.446C70.6697 50.546 70.3637 49.79 69.7517 49.178C69.1397 48.566 68.3777 48.26 67.4657 48.26C66.5537 48.26 65.7917 48.566 65.1797 49.178C64.5677 49.79 64.2617 50.546 64.2617 51.446C64.2617 52.358 64.5677 53.12 65.1797 53.732C65.7917 54.344 66.5537 54.65 67.4657 54.65C68.3777 54.65 69.1397 54.344 69.7517 53.732C70.3637 53.12 70.6697 52.358 70.6697 51.446ZM75.3823 45.362C75.0823 45.362 74.8303 45.26 74.6263 45.056C74.4223 44.852 74.3203 44.606 74.3203 44.318C74.3203 44.03 74.4223 43.784 74.6263 43.58C74.8303 43.364 75.0823 43.256 75.3823 43.256C75.6703 43.256 75.9163 43.364 76.1203 43.58C76.3243 43.784 76.4263 44.03 76.4263 44.318C76.4263 44.606 76.3243 44.852 76.1203 45.056C75.9163 45.26 75.6703 45.362 75.3823 45.362ZM76.1563 56H74.5903V47H76.1563V56ZM84.9714 48.044L80.3634 54.506H85.1514V56H78.2214V54.956L82.8114 48.494H78.4014V47H84.9714V48.044ZM91.5001 46.766C92.5561 46.766 93.4021 47.102 94.0381 47.774C94.6741 48.434 94.9921 49.334 94.9921 50.474V56H93.4261V50.564C93.4261 49.844 93.2281 49.28 92.8321 48.872C92.4361 48.464 91.8901 48.26 91.1941 48.26C90.3901 48.26 89.7541 48.512 89.2861 49.016C88.8181 49.508 88.5841 50.246 88.5841 51.23V56H87.0181V47H88.5841V48.296C89.2081 47.276 90.1801 46.766 91.5001 46.766ZM97.9702 45.362C97.6702 45.362 97.4182 45.26 97.2142 45.056C97.0102 44.852 96.9082 44.606 96.9082 44.318C96.9082 44.03 97.0102 43.784 97.2142 43.58C97.4182 43.364 97.6702 43.256 97.9702 43.256C98.2582 43.256 98.5042 43.364 98.7082 43.58C98.9122 43.784 99.0142 44.03 99.0142 44.318C99.0142 44.606 98.9122 44.852 98.7082 45.056C98.5042 45.26 98.2582 45.362 97.9702 45.362ZM98.7442 56H97.1782V47H98.7442V56ZM108.801 51.356L113.247 56H111.303L107.199 51.734V56H105.633V43.4H107.199V50.978L111.087 47H113.103L108.801 51.356ZM115.496 45.362C115.196 45.362 114.944 45.26 114.74 45.056C114.536 44.852 114.434 44.606 114.434 44.318C114.434 44.03 114.536 43.784 114.74 43.58C114.944 43.364 115.196 43.256 115.496 43.256C115.784 43.256 116.03 43.364 116.234 43.58C116.438 43.784 116.54 44.03 116.54 44.318C116.54 44.606 116.438 44.852 116.234 45.056C116.03 45.26 115.784 45.362 115.496 45.362ZM116.27 56H114.704V47H116.27V56ZM120.225 47V48.512C120.741 47.396 121.677 46.838 123.033 46.838V48.476C122.265 48.44 121.605 48.644 121.053 49.088C120.501 49.532 120.225 50.246 120.225 51.23V56H118.659V47H120.225ZM125.357 45.362C125.057 45.362 124.805 45.26 124.601 45.056C124.397 44.852 124.295 44.606 124.295 44.318C124.295 44.03 124.397 43.784 124.601 43.58C124.805 43.364 125.057 43.256 125.357 43.256C125.645 43.256 125.891 43.364 126.095 43.58C126.299 43.784 126.401 44.03 126.401 44.318C126.401 44.606 126.299 44.852 126.095 45.056C125.891 45.26 125.645 45.362 125.357 45.362ZM126.131 56H124.565V47H126.131V56ZM133.416 47V48.512H131.022V53.39C131.022 53.834 131.106 54.152 131.274 54.344C131.454 54.524 131.724 54.62 132.084 54.632C132.444 54.632 132.888 54.62 133.416 54.596V56C132.036 56.18 131.028 56.066 130.392 55.658C129.768 55.25 129.456 54.494 129.456 53.39V48.512H127.674V47H129.456V44.948L131.022 44.48V47H133.416ZM136.062 45.362C135.762 45.362 135.51 45.26 135.306 45.056C135.102 44.852 135 44.606 135 44.318C135 44.03 135.102 43.784 135.306 43.58C135.51 43.364 135.762 43.256 136.062 43.256C136.35 43.256 136.596 43.364 136.8 43.58C137.004 43.784 137.106 44.03 137.106 44.318C137.106 44.606 137.004 44.852 136.8 45.056C136.596 45.26 136.35 45.362 136.062 45.362ZM136.836 56H135.27V47H136.836V56ZM143.707 46.766C144.763 46.766 145.609 47.102 146.245 47.774C146.881 48.434 147.199 49.334 147.199 50.474V56H145.633V50.564C145.633 49.844 145.435 49.28 145.039 48.872C144.643 48.464 144.097 48.26 143.401 48.26C142.597 48.26 141.961 48.512 141.493 49.016C141.025 49.508 140.791 50.246 140.791 51.23V56H139.225V47H140.791V48.296C141.415 47.276 142.387 46.766 143.707 46.766ZM156.855 48.548V47H158.403V55.622C158.403 56.954 157.953 57.986 157.053 58.718C156.141 59.462 155.061 59.834 153.813 59.834C152.805 59.834 151.935 59.642 151.203 59.258C150.471 58.886 149.919 58.346 149.547 57.638L150.915 56.864C151.407 57.872 152.385 58.376 153.849 58.376C154.785 58.376 155.517 58.13 156.045 57.638C156.585 57.146 156.855 56.474 156.855 55.622V54.344C156.063 55.544 154.935 56.144 153.471 56.144C152.175 56.144 151.089 55.688 150.213 54.776C149.325 53.852 148.881 52.742 148.881 51.446C148.881 50.15 149.325 49.046 150.213 48.134C151.089 47.222 152.175 46.766 153.471 46.766C154.947 46.766 156.075 47.36 156.855 48.548ZM156.855 51.446C156.855 50.546 156.549 49.79 155.937 49.178C155.325 48.566 154.563 48.26 153.651 48.26C152.739 48.26 151.977 48.566 151.365 49.178C150.753 49.79 150.447 50.546 150.447 51.446C150.447 52.358 150.753 53.12 151.365 53.732C151.977 54.344 152.739 54.65 153.651 54.65C154.563 54.65 155.325 54.344 155.937 53.732C156.549 53.12 156.855 52.358 156.855 51.446Z" fill="#3A3A3A" fill-opacity="0.4"/>
<path d="M430.324 3.4H439.414V4.984H435.688V16H434.032V4.984H430.324V3.4ZM447.914 12.22H440.372C440.528 13.012 440.894 13.636 441.47 14.092C442.046 14.536 442.766 14.758 443.63 14.758C444.818 14.758 445.682 14.32 446.222 13.444L447.554 14.2C446.666 15.556 445.346 16.234 443.594 16.234C442.178 16.234 441.014 15.79 440.102 14.902C439.214 13.99 438.77 12.856 438.77 11.5C438.77 10.132 439.208 9.004 440.084 8.116C440.96 7.216 442.094 6.766 443.486 6.766C444.806 6.766 445.88 7.234 446.708 8.17C447.548 9.082 447.968 10.198 447.968 11.518C447.968 11.746 447.95 11.98 447.914 12.22ZM443.486 8.242C442.658 8.242 441.962 8.476 441.398 8.944C440.846 9.412 440.504 10.048 440.372 10.852H446.384C446.252 10.024 445.922 9.382 445.394 8.926C444.866 8.47 444.23 8.242 443.486 8.242ZM451.334 16H449.768V2.86H451.334V16ZM462.363 12.22H454.821C454.977 13.012 455.343 13.636 455.919 14.092C456.495 14.536 457.215 14.758 458.079 14.758C459.267 14.758 460.131 14.32 460.671 13.444L462.003 14.2C461.115 15.556 459.795 16.234 458.043 16.234C456.627 16.234 455.463 15.79 454.551 14.902C453.663 13.99 453.219 12.856 453.219 11.5C453.219 10.132 453.657 9.004 454.533 8.116C455.409 7.216 456.543 6.766 457.935 6.766C459.255 6.766 460.329 7.234 461.157 8.17C461.997 9.082 462.417 10.198 462.417 11.518C462.417 11.746 462.399 11.98 462.363 12.22ZM457.935 8.242C457.107 8.242 456.411 8.476 455.847 8.944C455.295 9.412 454.953 10.048 454.821 10.852H460.833C460.701 10.024 460.371 9.382 459.843 8.926C459.315 8.47 458.679 8.242 457.935 8.242ZM468.58 3.166V4.678C466.996 4.546 466.204 5.23 466.204 6.73V7H468.58V8.512H466.204V16H464.638V8.512H463.198V7H464.638V6.73C464.638 5.506 464.98 4.588 465.664 3.976C466.348 3.352 467.32 3.082 468.58 3.166ZM476.876 14.866C475.964 15.778 474.842 16.234 473.51 16.234C472.178 16.234 471.056 15.778 470.144 14.866C469.232 13.954 468.776 12.832 468.776 11.5C468.776 10.168 469.232 9.046 470.144 8.134C471.056 7.222 472.178 6.766 473.51 6.766C474.842 6.766 475.964 7.222 476.876 8.134C477.8 9.058 478.262 10.18 478.262 11.5C478.262 12.82 477.8 13.942 476.876 14.866ZM473.51 14.704C474.41 14.704 475.166 14.398 475.778 13.786C476.39 13.174 476.696 12.412 476.696 11.5C476.696 10.588 476.39 9.826 475.778 9.214C475.166 8.602 474.41 8.296 473.51 8.296C472.622 8.296 471.872 8.602 471.26 9.214C470.648 9.826 470.342 10.588 470.342 11.5C470.342 12.412 470.648 13.174 471.26 13.786C471.872 14.398 472.622 14.704 473.51 14.704ZM484.59 6.766C485.646 6.766 486.492 7.102 487.128 7.774C487.764 8.434 488.082 9.334 488.082 10.474V16H486.516V10.564C486.516 9.844 486.318 9.28 485.922 8.872C485.526 8.464 484.98 8.26 484.284 8.26C483.48 8.26 482.844 8.512 482.376 9.016C481.908 9.508 481.674 10.246 481.674 11.23V16H480.108V7H481.674V8.296C482.298 7.276 483.27 6.766 484.59 6.766Z" fill="#3A3A3A"/>
<path d="M498.17 17.8H496.604C495.284 15.16 494.624 12.46 494.624 9.7C494.624 6.94 495.284 4.24 496.604 1.6H498.17C496.85 4.24 496.19 6.94 496.19 9.7C496.19 12.46 496.85 15.16 498.17 17.8ZM503.395 9.52L509.137 16H507.085L501.649 9.952V16H499.975V3.4H501.649V9.088L506.905 3.4H508.957L503.395 9.52ZM517.253 14.866C516.341 15.778 515.219 16.234 513.887 16.234C512.555 16.234 511.433 15.778 510.521 14.866C509.609 13.954 509.153 12.832 509.153 11.5C509.153 10.168 509.609 9.046 510.521 8.134C511.433 7.222 512.555 6.766 513.887 6.766C515.219 6.766 516.341 7.222 517.253 8.134C518.177 9.058 518.639 10.18 518.639 11.5C518.639 12.82 518.177 13.942 517.253 14.866ZM513.887 14.704C514.787 14.704 515.543 14.398 516.155 13.786C516.767 13.174 517.073 12.412 517.073 11.5C517.073 10.588 516.767 9.826 516.155 9.214C515.543 8.602 514.787 8.296 513.887 8.296C512.999 8.296 512.249 8.602 511.637 9.214C511.025 9.826 510.719 10.588 510.719 11.5C510.719 12.412 511.025 13.174 511.637 13.786C512.249 14.398 512.999 14.704 513.887 14.704ZM519.742 3.382H521.542L520.372 7.756H519.022L519.742 3.382ZM525.32 7V8.512C525.836 7.396 526.772 6.838 528.128 6.838V8.476C527.36 8.44 526.7 8.644 526.148 9.088C525.596 9.532 525.32 10.246 525.32 11.23V16H523.754V7H525.32ZM530.677 9.43C530.677 10.006 531.271 10.456 532.459 10.78C532.903 10.876 533.275 10.978 533.575 11.086C533.887 11.182 534.223 11.332 534.583 11.536C534.955 11.74 535.237 12.01 535.429 12.346C535.621 12.682 535.717 13.078 535.717 13.534C535.717 14.35 535.399 15.004 534.763 15.496C534.127 15.988 533.323 16.234 532.351 16.234C531.487 16.234 530.737 16.048 530.101 15.676C529.477 15.292 529.033 14.776 528.769 14.128L530.119 13.354C530.263 13.786 530.533 14.128 530.929 14.38C531.325 14.632 531.799 14.758 532.351 14.758C532.891 14.758 533.323 14.656 533.647 14.452C533.971 14.248 534.133 13.942 534.133 13.534C534.133 12.922 533.539 12.478 532.351 12.202C531.955 12.094 531.655 12.01 531.451 11.95C531.247 11.89 530.965 11.782 530.605 11.626C530.257 11.47 529.993 11.308 529.813 11.14C529.633 10.96 529.465 10.726 529.309 10.438C529.165 10.138 529.093 9.808 529.093 9.448C529.093 8.668 529.393 8.026 529.993 7.522C530.605 7.018 531.367 6.766 532.279 6.766C533.011 6.766 533.659 6.934 534.223 7.27C534.799 7.594 535.231 8.05 535.519 8.638L534.205 9.376C533.881 8.608 533.239 8.224 532.279 8.224C531.823 8.224 531.439 8.332 531.127 8.548C530.827 8.764 530.677 9.058 530.677 9.43ZM544.777 8.548V7H546.343V16H544.777V14.452C544.009 15.64 542.875 16.234 541.375 16.234C540.103 16.234 539.029 15.778 538.153 14.866C537.265 13.942 536.821 12.82 536.821 11.5C536.821 10.192 537.265 9.076 538.153 8.152C539.041 7.228 540.115 6.766 541.375 6.766C542.875 6.766 544.009 7.36 544.777 8.548ZM541.573 14.722C542.485 14.722 543.247 14.416 543.859 13.804C544.471 13.168 544.777 12.4 544.777 11.5C544.777 10.588 544.471 9.826 543.859 9.214C543.247 8.59 542.485 8.278 541.573 8.278C540.673 8.278 539.917 8.59 539.305 9.214C538.693 9.826 538.387 10.588 538.387 11.5C538.387 12.4 538.693 13.168 539.305 13.804C539.917 14.416 540.673 14.722 541.573 14.722ZM553.611 7V8.512H551.217V13.39C551.217 13.834 551.301 14.152 551.469 14.344C551.649 14.524 551.919 14.62 552.279 14.632C552.639 14.632 553.083 14.62 553.611 14.596V16C552.231 16.18 551.223 16.066 550.587 15.658C549.963 15.25 549.651 14.494 549.651 13.39V8.512H547.869V7H549.651V4.948L551.217 4.48V7H553.611ZM556.257 5.362C555.957 5.362 555.705 5.26 555.501 5.056C555.297 4.852 555.195 4.606 555.195 4.318C555.195 4.03 555.297 3.784 555.501 3.58C555.705 3.364 555.957 3.256 556.257 3.256C556.545 3.256 556.791 3.364 556.995 3.58C557.199 3.784 557.301 4.03 557.301 4.318C557.301 4.606 557.199 4.852 556.995 5.056C556.791 5.26 556.545 5.362 556.257 5.362ZM557.031 16H555.465V7H557.031V16ZM560.986 16H559.42V2.86H560.986V16ZM564.168 5.362C563.868 5.362 563.616 5.26 563.412 5.056C563.208 4.852 563.106 4.606 563.106 4.318C563.106 4.03 563.208 3.784 563.412 3.58C563.616 3.364 563.868 3.256 564.168 3.256C564.456 3.256 564.702 3.364 564.906 3.58C565.11 3.784 565.212 4.03 565.212 4.318C565.212 4.606 565.11 4.852 564.906 5.056C564.702 5.26 564.456 5.362 564.168 5.362ZM564.942 16H563.375V7H564.942V16ZM568.663 9.43C568.663 10.006 569.257 10.456 570.445 10.78C570.889 10.876 571.261 10.978 571.561 11.086C571.873 11.182 572.209 11.332 572.569 11.536C572.941 11.74 573.223 12.01 573.415 12.346C573.607 12.682 573.703 13.078 573.703 13.534C573.703 14.35 573.385 15.004 572.749 15.496C572.113 15.988 571.309 16.234 570.337 16.234C569.473 16.234 568.723 16.048 568.087 15.676C567.463 15.292 567.019 14.776 566.755 14.128L568.105 13.354C568.249 13.786 568.519 14.128 568.915 14.38C569.311 14.632 569.785 14.758 570.337 14.758C570.877 14.758 571.309 14.656 571.633 14.452C571.957 14.248 572.119 13.942 572.119 13.534C572.119 12.922 571.525 12.478 570.337 12.202C569.941 12.094 569.641 12.01 569.437 11.95C569.233 11.89 568.951 11.782 568.591 11.626C568.243 11.47 567.979 11.308 567.799 11.14C567.619 10.96 567.451 10.726 567.295 10.438C567.151 10.138 567.079 9.808 567.079 9.448C567.079 8.668 567.379 8.026 567.979 7.522C568.591 7.018 569.353 6.766 570.265 6.766C570.997 6.766 571.645 6.934 572.209 7.27C572.785 7.594 573.217 8.05 573.505 8.638L572.191 9.376C571.867 8.608 571.225 8.224 570.265 8.224C569.809 8.224 569.425 8.332 569.113 8.548C568.813 8.764 568.663 9.058 568.663 9.43ZM579.951 6.766C581.007 6.766 581.853 7.102 582.489 7.774C583.125 8.434 583.443 9.334 583.443 10.474V16H581.877V10.564C581.877 9.844 581.679 9.28 581.283 8.872C580.887 8.464 580.341 8.26 579.645 8.26C578.841 8.26 578.205 8.512 577.737 9.016C577.269 9.508 577.035 10.246 577.035 11.23V16H575.469V3.4H577.035V8.296C577.659 7.276 578.631 6.766 579.951 6.766ZM586.421 5.362C586.121 5.362 585.869 5.26 585.665 5.056C585.461 4.852 585.359 4.606 585.359 4.318C585.359 4.03 585.461 3.784 585.665 3.58C585.869 3.364 586.121 3.256 586.421 3.256C586.709 3.256 586.955 3.364 587.159 3.58C587.363 3.784 587.465 4.03 587.465 4.318C587.465 4.606 587.363 4.852 587.159 5.056C586.955 5.26 586.709 5.362 586.421 5.362ZM587.195 16H585.629V7H587.195V16ZM595.434 9.43C595.434 10.006 596.028 10.456 597.216 10.78C597.66 10.876 598.032 10.978 598.332 11.086C598.644 11.182 598.98 11.332 599.34 11.536C599.712 11.74 599.994 12.01 600.186 12.346C600.378 12.682 600.474 13.078 600.474 13.534C600.474 14.35 600.156 15.004 599.52 15.496C598.884 15.988 598.08 16.234 597.108 16.234C596.244 16.234 595.494 16.048 594.858 15.676C594.234 15.292 593.79 14.776 593.526 14.128L594.876 13.354C595.02 13.786 595.29 14.128 595.686 14.38C596.082 14.632 596.556 14.758 597.108 14.758C597.648 14.758 598.08 14.656 598.404 14.452C598.728 14.248 598.89 13.942 598.89 13.534C598.89 12.922 598.296 12.478 597.108 12.202C596.712 12.094 596.412 12.01 596.208 11.95C596.004 11.89 595.722 11.782 595.362 11.626C595.014 11.47 594.75 11.308 594.57 11.14C594.39 10.96 594.222 10.726 594.066 10.438C593.922 10.138 593.85 9.808 593.85 9.448C593.85 8.668 594.15 8.026 594.75 7.522C595.362 7.018 596.124 6.766 597.036 6.766C597.768 6.766 598.416 6.934 598.98 7.27C599.556 7.594 599.988 8.05 600.276 8.638L598.962 9.376C598.638 8.608 597.996 8.224 597.036 8.224C596.58 8.224 596.196 8.332 595.884 8.548C595.584 8.764 595.434 9.058 595.434 9.43ZM606.723 6.766C607.779 6.766 608.625 7.102 609.261 7.774C609.897 8.434 610.215 9.334 610.215 10.474V16H608.649V10.564C608.649 9.844 608.451 9.28 608.055 8.872C607.659 8.464 607.113 8.26 606.417 8.26C605.613 8.26 604.977 8.512 604.509 9.016C604.041 9.508 603.807 10.246 603.807 11.23V16H602.241V3.4H603.807V8.296C604.431 7.276 605.403 6.766 606.723 6.766ZM619.853 8.548V7H621.419V16H619.853V14.452C619.085 15.64 617.951 16.234 616.451 16.234C615.179 16.234 614.105 15.778 613.229 14.866C612.341 13.942 611.897 12.82 611.897 11.5C611.897 10.192 612.341 9.076 613.229 8.152C614.117 7.228 615.191 6.766 616.451 6.766C617.951 6.766 619.085 7.36 619.853 8.548ZM616.649 14.722C617.561 14.722 618.323 14.416 618.935 13.804C619.547 13.168 619.853 12.4 619.853 11.5C619.853 10.588 619.547 9.826 618.935 9.214C618.323 8.59 617.561 8.278 616.649 8.278C615.749 8.278 614.993 8.59 614.381 9.214C613.769 9.826 613.463 10.588 613.463 11.5C613.463 12.4 613.769 13.168 614.381 13.804C614.993 14.416 615.749 14.722 616.649 14.722ZM625.358 7V8.512C625.874 7.396 626.81 6.838 628.166 6.838V8.476C627.398 8.44 626.738 8.644 626.186 9.088C625.634 9.532 625.358 10.246 625.358 11.23V16H623.792V7H625.358ZM634.805 7V8.512H632.411V13.39C632.411 13.834 632.495 14.152 632.663 14.344C632.843 14.524 633.113 14.62 633.473 14.632C633.833 14.632 634.277 14.62 634.805 14.596V16C633.425 16.18 632.417 16.066 631.781 15.658C631.157 15.25 630.845 14.494 630.845 13.39V8.512H629.063V7H630.845V4.948L632.411 4.48V7H634.805ZM637.539 17.8H635.973C637.293 15.16 637.953 12.46 637.953 9.7C637.953 6.94 637.293 4.24 635.973 1.6H637.539C638.859 4.24 639.519 6.94 639.519 9.7C639.519 12.46 638.859 15.16 637.539 17.8Z" fill="#FEAB38"/>
<g filter="url(#filter1_ii_3128_1276)">
<rect x="430" y="25" width="370" height="50" rx="10" fill="#F8F8F8"/>
</g>
<rect x="430.5" y="25.5" width="369" height="49" rx="9.5" stroke="#EBEBEB"/>
<line x1="504.25" y1="25" x2="504.25" y2="74.0102" stroke="black" stroke-opacity="0.1" stroke-width="1.5"/>
<path d="M455.652 48.944H458.784V50.438H455.652V53.57H454.158V50.438H451.044V48.944H454.158V45.83H455.652V48.944ZM468.989 47.396C468.989 48.38 468.731 49.226 468.215 49.934H468.233L464.165 56H462.275L465.263 51.59C464.903 51.614 464.699 51.626 464.651 51.626C463.379 51.626 462.335 51.236 461.519 50.456C460.715 49.664 460.313 48.644 460.313 47.396C460.313 46.136 460.715 45.122 461.519 44.354C462.323 43.562 463.367 43.166 464.651 43.166C465.911 43.166 466.949 43.562 467.765 44.354C468.581 45.134 468.989 46.148 468.989 47.396ZM464.651 44.768C463.859 44.768 463.211 45.008 462.707 45.488C462.215 45.968 461.969 46.604 461.969 47.396C461.969 48.188 462.215 48.83 462.707 49.322C463.211 49.802 463.859 50.042 464.651 50.042C465.443 50.042 466.085 49.802 466.577 49.322C467.081 48.83 467.333 48.188 467.333 47.396C467.333 46.604 467.087 45.968 466.595 45.488C466.103 45.008 465.455 44.768 464.651 44.768ZM478.674 47.396C478.674 48.38 478.416 49.226 477.9 49.934H477.918L473.85 56H471.96L474.948 51.59C474.588 51.614 474.384 51.626 474.336 51.626C473.064 51.626 472.02 51.236 471.204 50.456C470.4 49.664 469.998 48.644 469.998 47.396C469.998 46.136 470.4 45.122 471.204 44.354C472.008 43.562 473.052 43.166 474.336 43.166C475.596 43.166 476.634 43.562 477.45 44.354C478.266 45.134 478.674 46.148 478.674 47.396ZM474.336 44.768C473.544 44.768 472.896 45.008 472.392 45.488C471.9 45.968 471.654 46.604 471.654 47.396C471.654 48.188 471.9 48.83 472.392 49.322C472.896 49.802 473.544 50.042 474.336 50.042C475.128 50.042 475.77 49.802 476.262 49.322C476.766 48.83 477.018 48.188 477.018 47.396C477.018 46.604 476.772 45.968 476.28 45.488C475.788 45.008 475.14 44.768 474.336 44.768ZM486.524 49.484C487.832 50.156 488.486 51.176 488.486 52.544C488.486 53.696 488.084 54.602 487.28 55.262C486.464 55.91 485.426 56.234 484.166 56.234C482.906 56.234 481.874 55.91 481.07 55.262C480.266 54.602 479.864 53.696 479.864 52.544C479.864 51.176 480.518 50.156 481.826 49.484C480.794 48.836 480.278 47.918 480.278 46.73C480.278 45.59 480.656 44.714 481.412 44.102C482.18 43.478 483.098 43.166 484.166 43.166C485.258 43.166 486.176 43.478 486.92 44.102C487.688 44.714 488.072 45.59 488.072 46.73C488.072 47.918 487.556 48.836 486.524 49.484ZM484.166 44.768C483.506 44.768 482.966 44.942 482.546 45.29C482.138 45.638 481.934 46.13 481.934 46.766C481.934 47.39 482.144 47.882 482.564 48.242C482.984 48.602 483.518 48.782 484.166 48.782C484.814 48.782 485.348 48.602 485.768 48.242C486.188 47.882 486.398 47.39 486.398 46.766C486.398 46.13 486.194 45.638 485.786 45.29C485.378 44.942 484.838 44.768 484.166 44.768ZM484.166 54.632C484.982 54.632 485.63 54.44 486.11 54.056C486.59 53.672 486.83 53.132 486.83 52.436C486.83 51.752 486.59 51.218 486.11 50.834C485.63 50.45 484.982 50.258 484.166 50.258C483.362 50.258 482.72 50.45 482.24 50.834C481.76 51.218 481.52 51.752 481.52 52.436C481.52 53.132 481.76 53.672 482.24 54.056C482.72 54.44 483.362 54.632 484.166 54.632Z" fill="#3A3A3A" fill-opacity="0.7"/>
<path d="M526.18 47.396C526.18 48.38 525.922 49.226 525.406 49.934H525.424L521.356 56H519.466L522.454 51.59C522.094 51.614 521.89 51.626 521.842 51.626C520.57 51.626 519.526 51.236 518.71 50.456C517.906 49.664 517.504 48.644 517.504 47.396C517.504 46.136 517.906 45.122 518.71 44.354C519.514 43.562 520.558 43.166 521.842 43.166C523.102 43.166 524.14 43.562 524.956 44.354C525.772 45.134 526.18 46.148 526.18 47.396ZM521.842 44.768C521.05 44.768 520.402 45.008 519.898 45.488C519.406 45.968 519.16 46.604 519.16 47.396C519.16 48.188 519.406 48.83 519.898 49.322C520.402 49.802 521.05 50.042 521.842 50.042C522.634 50.042 523.276 49.802 523.768 49.322C524.272 48.83 524.524 48.188 524.524 47.396C524.524 46.604 524.278 45.968 523.786 45.488C523.294 45.008 522.646 44.768 521.842 44.768ZM535.866 47.396C535.866 48.38 535.608 49.226 535.092 49.934H535.11L531.042 56H529.152L532.14 51.59C531.78 51.614 531.576 51.626 531.528 51.626C530.256 51.626 529.212 51.236 528.396 50.456C527.592 49.664 527.19 48.644 527.19 47.396C527.19 46.136 527.592 45.122 528.396 44.354C529.2 43.562 530.244 43.166 531.528 43.166C532.788 43.166 533.826 43.562 534.642 44.354C535.458 45.134 535.866 46.148 535.866 47.396ZM531.528 44.768C530.736 44.768 530.088 45.008 529.584 45.488C529.092 45.968 528.846 46.604 528.846 47.396C528.846 48.188 529.092 48.83 529.584 49.322C530.088 49.802 530.736 50.042 531.528 50.042C532.32 50.042 532.962 49.802 533.454 49.322C533.958 48.83 534.21 48.188 534.21 47.396C534.21 46.604 533.964 45.968 533.472 45.488C532.98 45.008 532.332 44.768 531.528 44.768ZM549.403 52.04H550.933V53.606H549.403V56H547.729V53.606H541.303V52.04L545.821 43.4H547.621L543.103 52.04H547.729V48.476H549.403V52.04ZM554.337 48.314H556.173C557.361 48.314 558.363 48.668 559.179 49.376C560.007 50.084 560.421 51.05 560.421 52.274C560.421 53.51 560.001 54.476 559.161 55.172C558.309 55.88 557.289 56.234 556.101 56.234C555.117 56.234 554.247 56 553.491 55.532C552.747 55.052 552.231 54.386 551.943 53.534L553.365 52.724C553.533 53.324 553.857 53.786 554.337 54.11C554.817 54.434 555.405 54.596 556.101 54.596C556.905 54.596 557.547 54.392 558.027 53.984C558.519 53.564 558.765 52.994 558.765 52.274C558.765 51.554 558.519 50.984 558.027 50.564C557.547 50.144 556.917 49.934 556.137 49.934H552.573L553.041 43.4H559.935V44.966H554.553L554.337 48.314ZM569.618 52.04H571.148V53.606H569.618V56H567.944V53.606H561.518V52.04L566.036 43.4H567.836L563.318 52.04H567.944V48.476H569.618V52.04ZM584.559 52.04H586.089V53.606H584.559V56H582.885V53.606H576.459V52.04L580.977 43.4H582.777L578.259 52.04H582.885V48.476H584.559V52.04ZM589.493 48.314H591.329C592.517 48.314 593.519 48.668 594.335 49.376C595.163 50.084 595.577 51.05 595.577 52.274C595.577 53.51 595.157 54.476 594.317 55.172C593.465 55.88 592.445 56.234 591.257 56.234C590.273 56.234 589.403 56 588.647 55.532C587.903 55.052 587.387 54.386 587.099 53.534L588.521 52.724C588.689 53.324 589.013 53.786 589.493 54.11C589.973 54.434 590.561 54.596 591.257 54.596C592.061 54.596 592.703 54.392 593.183 53.984C593.675 53.564 593.921 52.994 593.921 52.274C593.921 51.554 593.675 50.984 593.183 50.564C592.703 50.144 592.073 49.934 591.293 49.934H587.729L588.197 43.4H595.091V44.966H589.709L589.493 48.314ZM609.274 52.04H610.804V53.606H609.274V56H607.6V53.606H601.174V52.04L605.692 43.4H607.492L602.974 52.04H607.6V48.476H609.274V52.04ZM614.208 48.314H616.044C617.232 48.314 618.234 48.668 619.05 49.376C619.878 50.084 620.292 51.05 620.292 52.274C620.292 53.51 619.872 54.476 619.032 55.172C618.18 55.88 617.16 56.234 615.972 56.234C614.988 56.234 614.118 56 613.362 55.532C612.618 55.052 612.102 54.386 611.814 53.534L613.236 52.724C613.404 53.324 613.728 53.786 614.208 54.11C614.688 54.434 615.276 54.596 615.972 54.596C616.776 54.596 617.418 54.392 617.898 53.984C618.39 53.564 618.636 52.994 618.636 52.274C618.636 51.554 618.39 50.984 617.898 50.564C617.418 50.144 616.788 49.934 616.008 49.934H612.444L612.912 43.4H619.806V44.966H614.424L614.208 48.314Z" fill="#3A3A3A" fill-opacity="0.4"/>
<rect x="580" y="290" width="220" height="50" rx="10" fill="#DFBB7F"/>
<path d="M650.034 304.7H653.178L647.322 314.828V321.5H644.562V314.828L638.706 304.7H641.85L645.954 312.14L650.034 304.7ZM661.475 315.932V309.5H664.067V321.5H661.475V319.964C660.675 321.196 659.435 321.812 657.755 321.812C656.363 321.812 655.243 321.372 654.395 320.492C653.563 319.596 653.147 318.388 653.147 316.868V309.5H655.739V316.604C655.739 317.5 655.979 318.188 656.459 318.668C656.939 319.148 657.595 319.388 658.427 319.388C659.371 319.388 660.115 319.1 660.659 318.524C661.203 317.932 661.475 317.068 661.475 315.932ZM673.89 309.188C675.538 309.188 676.946 309.796 678.114 311.012C679.282 312.228 679.866 313.724 679.866 315.5C679.866 317.276 679.282 318.772 678.114 319.988C676.946 321.204 675.538 321.812 673.89 321.812C672.066 321.812 670.666 321.132 669.69 319.772V321.5H667.098V304.7H669.69V311.204C670.682 309.86 672.082 309.188 673.89 309.188ZM670.77 318.26C671.49 318.98 672.394 319.34 673.482 319.34C674.57 319.34 675.474 318.98 676.194 318.26C676.914 317.524 677.274 316.604 677.274 315.5C677.274 314.396 676.914 313.484 676.194 312.764C675.474 312.028 674.57 311.66 673.482 311.66C672.394 311.66 671.49 312.028 670.77 312.764C670.05 313.484 669.69 314.396 669.69 315.5C669.69 316.588 670.05 317.508 670.77 318.26ZM692.367 319.988C691.151 321.204 689.655 321.812 687.879 321.812C686.103 321.812 684.607 321.204 683.391 319.988C682.159 318.756 681.543 317.26 681.543 315.5C681.543 313.74 682.159 312.244 683.391 311.012C684.607 309.796 686.103 309.188 687.879 309.188C689.655 309.188 691.151 309.796 692.367 311.012C693.599 312.244 694.215 313.74 694.215 315.5C694.215 317.26 693.599 318.756 692.367 319.988ZM684.135 315.5C684.135 316.588 684.495 317.492 685.215 318.212C685.935 318.932 686.823 319.292 687.879 319.292C688.935 319.292 689.823 318.932 690.543 318.212C691.263 317.492 691.623 316.588 691.623 315.5C691.623 314.412 691.263 313.508 690.543 312.788C689.823 312.068 688.935 311.708 687.879 311.708C686.823 311.708 685.935 312.068 685.215 312.788C684.495 313.508 684.135 314.412 684.135 315.5ZM699.151 309.5V311.516C699.807 310.028 701.039 309.284 702.847 309.284V312.092C701.871 312.028 701.007 312.268 700.255 312.812C699.519 313.34 699.151 314.22 699.151 315.452V321.5H696.559V309.5H699.151ZM707.21 307.22C706.89 307.54 706.506 307.7 706.058 307.7C705.61 307.7 705.218 307.54 704.882 307.22C704.562 306.884 704.402 306.492 704.402 306.044C704.402 305.596 704.562 305.212 704.882 304.892C705.202 304.556 705.594 304.388 706.058 304.388C706.522 304.388 706.914 304.556 707.234 304.892C707.554 305.212 707.714 305.596 707.714 306.044C707.714 306.492 707.546 306.884 707.21 307.22ZM707.354 321.5H704.762V309.5H707.354V321.5ZM712.621 312.812C712.621 313.18 712.813 313.484 713.197 313.724C713.581 313.948 714.141 314.164 714.877 314.372C715.437 314.5 715.925 314.636 716.341 314.78C716.757 314.924 717.197 315.14 717.661 315.428C718.125 315.7 718.477 316.068 718.717 316.532C718.973 316.98 719.093 317.508 719.077 318.116C719.077 319.268 718.629 320.172 717.733 320.828C716.837 321.484 715.725 321.812 714.397 321.812C713.213 321.812 712.197 321.564 711.349 321.068C710.501 320.572 709.885 319.884 709.501 319.004L711.733 317.708C712.133 318.86 713.021 319.436 714.397 319.436C715.757 319.436 716.437 318.988 716.437 318.092C716.437 317.436 715.677 316.924 714.157 316.556C713.581 316.412 713.093 316.268 712.693 316.124C712.309 315.98 711.877 315.772 711.397 315.5C710.933 315.228 710.573 314.868 710.317 314.42C710.077 313.972 709.965 313.452 709.981 312.86C709.981 311.756 710.397 310.868 711.229 310.196C712.077 309.524 713.125 309.188 714.373 309.188C715.365 309.188 716.245 309.412 717.013 309.86C717.797 310.292 718.397 310.9 718.813 311.684L716.629 312.908C716.229 311.996 715.477 311.54 714.373 311.54C713.861 311.54 713.437 311.652 713.101 311.876C712.781 312.1 712.621 312.412 712.621 312.812ZM727.527 309.188C728.919 309.188 730.031 309.636 730.863 310.532C731.711 311.412 732.135 312.612 732.135 314.132V321.5H729.543V314.396C729.543 313.5 729.303 312.812 728.823 312.332C728.343 311.852 727.687 311.612 726.855 311.612C725.911 311.612 725.167 311.908 724.623 312.5C724.079 313.076 723.807 313.932 723.807 315.068V321.5H721.215V304.7H723.807V311.036C724.607 309.804 725.847 309.188 727.527 309.188Z" fill="white"/>
<path d="M6.264 114.502L10.314 121H8.406L5.31 116.032L2.214 121H0.324L4.374 114.52L0.558 108.4H2.448L5.31 112.99L8.172 108.4H10.062L6.264 114.502ZM18.6244 113.548V112H20.1904V121H18.6244V119.452C17.8564 120.64 16.7224 121.234 15.2224 121.234C13.9504 121.234 12.8764 120.778 12.0004 119.866C11.1124 118.942 10.6684 117.82 10.6684 116.5C10.6684 115.192 11.1124 114.076 12.0004 113.152C12.8884 112.228 13.9624 111.766 15.2224 111.766C16.7224 111.766 17.8564 112.36 18.6244 113.548ZM15.4204 119.722C16.3324 119.722 17.0944 119.416 17.7064 118.804C18.3184 118.168 18.6244 117.4 18.6244 116.5C18.6244 115.588 18.3184 114.826 17.7064 114.214C17.0944 113.59 16.3324 113.278 15.4204 113.278C14.5204 113.278 13.7644 113.59 13.1524 114.214C12.5404 114.826 12.2344 115.588 12.2344 116.5C12.2344 117.4 12.5404 118.168 13.1524 118.804C13.7644 119.416 14.5204 119.722 15.4204 119.722ZM27.531 111.766C28.791 111.766 29.865 112.228 30.753 113.152C31.641 114.076 32.085 115.192 32.085 116.5C32.085 117.82 31.641 118.942 30.753 119.866C29.877 120.778 28.803 121.234 27.531 121.234C26.043 121.234 24.909 120.64 24.129 119.452V121H22.563V108.4H24.129V113.548C24.909 112.36 26.043 111.766 27.531 111.766ZM27.333 119.722C28.233 119.722 28.989 119.416 29.601 118.804C30.213 118.168 30.519 117.4 30.519 116.5C30.519 115.588 30.213 114.826 29.601 114.214C28.989 113.59 28.233 113.278 27.333 113.278C26.421 113.278 25.659 113.59 25.047 114.214C24.435 114.826 24.129 115.588 24.129 116.5C24.129 117.4 24.435 118.168 25.047 118.804C25.659 119.416 26.421 119.722 27.333 119.722ZM41.4056 113.548V112H42.9716V121H41.4056V119.452C40.6376 120.64 39.5036 121.234 38.0036 121.234C36.7316 121.234 35.6576 120.778 34.7816 119.866C33.8936 118.942 33.4496 117.82 33.4496 116.5C33.4496 115.192 33.8936 114.076 34.7816 113.152C35.6696 112.228 36.7436 111.766 38.0036 111.766C39.5036 111.766 40.6376 112.36 41.4056 113.548ZM38.2016 119.722C39.1136 119.722 39.8756 119.416 40.4876 118.804C41.0996 118.168 41.4056 117.4 41.4056 116.5C41.4056 115.588 41.0996 114.826 40.4876 114.214C39.8756 113.59 39.1136 113.278 38.2016 113.278C37.3016 113.278 36.5456 113.59 35.9336 114.214C35.3216 114.826 35.0156 115.588 35.0156 116.5C35.0156 117.4 35.3216 118.168 35.9336 118.804C36.5456 119.416 37.3016 119.722 38.2016 119.722ZM46.9103 112V113.512C47.4263 112.396 48.3623 111.838 49.7183 111.838V113.476C48.9503 113.44 48.2903 113.644 47.7383 114.088C47.1863 114.532 46.9103 115.246 46.9103 116.23V121H45.3442V112H46.9103ZM52.0425 110.362C51.7425 110.362 51.4905 110.26 51.2865 110.056C51.0825 109.852 50.9805 109.606 50.9805 109.318C50.9805 109.03 51.0825 108.784 51.2865 108.58C51.4905 108.364 51.7425 108.256 52.0425 108.256C52.3305 108.256 52.5765 108.364 52.7805 108.58C52.9845 108.784 53.0865 109.03 53.0865 109.318C53.0865 109.606 52.9845 109.852 52.7805 110.056C52.5765 110.26 52.3305 110.362 52.0425 110.362ZM52.8165 121H51.2505V112H52.8165V121ZM59.6876 111.766C60.7436 111.766 61.5896 112.102 62.2256 112.774C62.8616 113.434 63.1796 114.334 63.1796 115.474V121H61.6136V115.564C61.6136 114.844 61.4156 114.28 61.0196 113.872C60.6236 113.464 60.0776 113.26 59.3816 113.26C58.5776 113.26 57.9416 113.512 57.4736 114.016C57.0056 114.508 56.7716 115.246 56.7716 116.23V121H55.2056V112H56.7716V113.296C57.3956 112.276 58.3676 111.766 59.6876 111.766ZM72.8357 113.548V112H74.3837V120.622C74.3837 121.954 73.9337 122.986 73.0337 123.718C72.1217 124.462 71.0417 124.834 69.7937 124.834C68.7857 124.834 67.9157 124.642 67.1837 124.258C66.4517 123.886 65.8997 123.346 65.5277 122.638L66.8957 121.864C67.3877 122.872 68.3657 123.376 69.8297 123.376C70.7657 123.376 71.4977 123.13 72.0257 122.638C72.5657 122.146 72.8357 121.474 72.8357 120.622V119.344C72.0437 120.544 70.9157 121.144 69.4517 121.144C68.1557 121.144 67.0697 120.688 66.1937 119.776C65.3057 118.852 64.8617 117.742 64.8617 116.446C64.8617 115.15 65.3057 114.046 66.1937 113.134C67.0697 112.222 68.1557 111.766 69.4517 111.766C70.9277 111.766 72.0557 112.36 72.8357 113.548ZM72.8357 116.446C72.8357 115.546 72.5297 114.79 71.9177 114.178C71.3057 113.566 70.5437 113.26 69.6317 113.26C68.7197 113.26 67.9577 113.566 67.3457 114.178C66.7337 114.79 66.4277 115.546 66.4277 116.446C66.4277 117.358 66.7337 118.12 67.3457 118.732C67.9577 119.344 68.7197 119.65 69.6317 119.65C70.5437 119.65 71.3057 119.344 71.9177 118.732C72.5297 118.12 72.8357 117.358 72.8357 116.446ZM77.5484 110.362C77.2484 110.362 76.9964 110.26 76.7924 110.056C76.5884 109.852 76.4864 109.606 76.4864 109.318C76.4864 109.03 76.5884 108.784 76.7924 108.58C76.9964 108.364 77.2484 108.256 77.5484 108.256C77.8364 108.256 78.0824 108.364 78.2864 108.58C78.4904 108.784 78.5924 109.03 78.5924 109.318C78.5924 109.606 78.4904 109.852 78.2864 110.056C78.0824 110.26 77.8364 110.362 77.5484 110.362ZM78.3224 121H76.7564V112H78.3224V121ZM87.1374 113.044L82.5294 119.506H87.3174V121H80.3874V119.956L84.9774 113.494H80.5674V112H87.1374V113.044ZM93.6661 111.766C94.7221 111.766 95.5681 112.102 96.2041 112.774C96.8401 113.434 97.1581 114.334 97.1581 115.474V121H95.5921V115.564C95.5921 114.844 95.3941 114.28 94.9981 113.872C94.6021 113.464 94.0561 113.26 93.3601 113.26C92.5561 113.26 91.9201 113.512 91.4521 114.016C90.9841 114.508 90.7501 115.246 90.7501 116.23V121H89.1841V112H90.7501V113.296C91.3741 112.276 92.3461 111.766 93.6661 111.766ZM100.136 110.362C99.8363 110.362 99.5843 110.26 99.3803 110.056C99.1763 109.852 99.0743 109.606 99.0743 109.318C99.0743 109.03 99.1763 108.784 99.3803 108.58C99.5843 108.364 99.8363 108.256 100.136 108.256C100.424 108.256 100.67 108.364 100.874 108.58C101.078 108.784 101.18 109.03 101.18 109.318C101.18 109.606 101.078 109.852 100.874 110.056C100.67 110.26 100.424 110.362 100.136 110.362ZM100.91 121H99.3442V112H100.91V121ZM115.251 113.548V112H116.817V124.6H115.251V119.452C114.483 120.64 113.349 121.234 111.849 121.234C110.577 121.234 109.503 120.778 108.627 119.866C107.739 118.942 107.295 117.82 107.295 116.5C107.295 115.192 107.739 114.076 108.627 113.152C109.515 112.228 110.589 111.766 111.849 111.766C113.349 111.766 114.483 112.36 115.251 113.548ZM112.047 119.722C112.959 119.722 113.721 119.416 114.333 118.804C114.945 118.168 115.251 117.4 115.251 116.5C115.251 115.588 114.945 114.826 114.333 114.214C113.721 113.59 112.959 113.278 112.047 113.278C111.147 113.278 110.391 113.59 109.779 114.214C109.167 114.826 108.861 115.588 108.861 116.5C108.861 117.4 109.167 118.168 109.779 118.804C110.391 119.416 111.147 119.722 112.047 119.722ZM126.786 119.866C125.874 120.778 124.752 121.234 123.42 121.234C122.088 121.234 120.966 120.778 120.054 119.866C119.142 118.954 118.686 117.832 118.686 116.5C118.686 115.168 119.142 114.046 120.054 113.134C120.966 112.222 122.088 111.766 123.42 111.766C124.752 111.766 125.874 112.222 126.786 113.134C127.71 114.058 128.172 115.18 128.172 116.5C128.172 117.82 127.71 118.942 126.786 119.866ZM123.42 119.704C124.32 119.704 125.076 119.398 125.688 118.786C126.3 118.174 126.606 117.412 126.606 116.5C126.606 115.588 126.3 114.826 125.688 114.214C125.076 113.602 124.32 113.296 123.42 113.296C122.532 113.296 121.782 113.602 121.17 114.214C120.558 114.826 120.252 115.588 120.252 116.5C120.252 117.412 120.558 118.174 121.17 118.786C121.782 119.398 122.532 119.704 123.42 119.704ZM131.584 121H130.018V107.86H131.584V121ZM141.425 113.548V108.4H142.991V121H141.425V119.452C140.657 120.64 139.523 121.234 138.023 121.234C136.751 121.234 135.677 120.778 134.801 119.866C133.913 118.942 133.469 117.82 133.469 116.5C133.469 115.192 133.913 114.076 134.801 113.152C135.689 112.228 136.763 111.766 138.023 111.766C139.523 111.766 140.657 112.36 141.425 113.548ZM138.221 119.722C139.133 119.722 139.895 119.416 140.507 118.804C141.119 118.168 141.425 117.4 141.425 116.5C141.425 115.588 141.119 114.826 140.507 114.214C139.895 113.59 139.133 113.278 138.221 113.278C137.321 113.278 136.565 113.59 135.953 114.214C135.341 114.826 135.035 115.588 135.035 116.5C135.035 117.4 135.341 118.168 135.953 118.804C136.565 119.416 137.321 119.722 138.221 119.722ZM146.156 110.362C145.856 110.362 145.604 110.26 145.4 110.056C145.196 109.852 145.094 109.606 145.094 109.318C145.094 109.03 145.196 108.784 145.4 108.58C145.604 108.364 145.856 108.256 146.156 108.256C146.444 108.256 146.69 108.364 146.894 108.58C147.098 108.784 147.2 109.03 147.2 109.318C147.2 109.606 147.098 109.852 146.894 110.056C146.69 110.26 146.444 110.362 146.156 110.362ZM146.93 121H145.364V112H146.93V121ZM150.885 112V113.512C151.401 112.396 152.337 111.838 153.693 111.838V113.476C152.925 113.44 152.265 113.644 151.713 114.088C151.161 114.532 150.885 115.246 150.885 116.23V121H149.319V112H150.885ZM156.017 110.362C155.717 110.362 155.465 110.26 155.261 110.056C155.057 109.852 154.955 109.606 154.955 109.318C154.955 109.03 155.057 108.784 155.261 108.58C155.465 108.364 155.717 108.256 156.017 108.256C156.305 108.256 156.551 108.364 156.755 108.58C156.959 108.784 157.061 109.03 157.061 109.318C157.061 109.606 156.959 109.852 156.755 110.056C156.551 110.26 156.305 110.362 156.017 110.362ZM156.791 121H155.225V112H156.791V121ZM163.662 111.766C164.718 111.766 165.564 112.102 166.2 112.774C166.836 113.434 167.154 114.334 167.154 115.474V121H165.588V115.564C165.588 114.844 165.39 114.28 164.994 113.872C164.598 113.464 164.052 113.26 163.356 113.26C162.552 113.26 161.916 113.512 161.448 114.016C160.98 114.508 160.746 115.246 160.746 116.23V121H159.18V112H160.746V113.296C161.37 112.276 162.342 111.766 163.662 111.766ZM176.81 113.548V112H178.358V120.622C178.358 121.954 177.908 122.986 177.008 123.718C176.096 124.462 175.016 124.834 173.768 124.834C172.76 124.834 171.89 124.642 171.158 124.258C170.426 123.886 169.874 123.346 169.502 122.638L170.87 121.864C171.362 122.872 172.34 123.376 173.804 123.376C174.74 123.376 175.472 123.13 176 122.638C176.54 122.146 176.81 121.474 176.81 120.622V119.344C176.018 120.544 174.89 121.144 173.426 121.144C172.13 121.144 171.044 120.688 170.168 119.776C169.28 118.852 168.836 117.742 168.836 116.446C168.836 115.15 169.28 114.046 170.168 113.134C171.044 112.222 172.13 111.766 173.426 111.766C174.902 111.766 176.03 112.36 176.81 113.548ZM176.81 116.446C176.81 115.546 176.504 114.79 175.892 114.178C175.28 113.566 174.518 113.26 173.606 113.26C172.694 113.26 171.932 113.566 171.32 114.178C170.708 114.79 170.402 115.546 170.402 116.446C170.402 117.358 170.708 118.12 171.32 118.732C171.932 119.344 172.694 119.65 173.606 119.65C174.518 119.65 175.28 119.344 175.892 118.732C176.504 118.12 176.81 117.358 176.81 116.446Z" fill="#3A3A3A"/>
<g filter="url(#filter2_ii_3128_1276)">
<rect y="130" width="800" height="130" rx="10" fill="#F8F8F8"/>
</g>
<rect x="0.5" y="130.5" width="799" height="129" rx="9.5" stroke="#EBEBEB"/>
<line y1="-0.5" x2="27.4844" y2="-0.5" transform="matrix(-0.899652 0.436608 -0.893334 -0.449392 797.781 245)" stroke="#484848"/>
<line y1="-0.5" x2="15.0128" y2="-0.5" transform="matrix(-0.89701 0.442011 -0.902237 -0.431241 796.462 249.943)" stroke="#484848"/>
<path d="M26.264 159.502L30.314 166H28.406L25.31 161.032L22.214 166H20.324L24.374 159.52L20.558 153.4H22.448L25.31 157.99L28.172 153.4H30.062L26.264 159.502ZM38.6244 158.548V157H40.1904V166H38.6244V164.452C37.8564 165.64 36.7224 166.234 35.2224 166.234C33.9504 166.234 32.8764 165.778 32.0004 164.866C31.1124 163.942 30.6684 162.82 30.6684 161.5C30.6684 160.192 31.1124 159.076 32.0004 158.152C32.8884 157.228 33.9624 156.766 35.2224 156.766C36.7224 156.766 37.8564 157.36 38.6244 158.548ZM35.4204 164.722C36.3324 164.722 37.0944 164.416 37.7064 163.804C38.3184 163.168 38.6244 162.4 38.6244 161.5C38.6244 160.588 38.3184 159.826 37.7064 159.214C37.0944 158.59 36.3324 158.278 35.4204 158.278C34.5204 158.278 33.7644 158.59 33.1524 159.214C32.5404 159.826 32.2344 160.588 32.2344 161.5C32.2344 162.4 32.5404 163.168 33.1524 163.804C33.7644 164.416 34.5204 164.722 35.4204 164.722ZM47.531 156.766C48.791 156.766 49.865 157.228 50.753 158.152C51.641 159.076 52.085 160.192 52.085 161.5C52.085 162.82 51.641 163.942 50.753 164.866C49.877 165.778 48.803 166.234 47.531 166.234C46.043 166.234 44.909 165.64 44.129 164.452V166H42.563V153.4H44.129V158.548C44.909 157.36 46.043 156.766 47.531 156.766ZM47.333 164.722C48.233 164.722 48.989 164.416 49.601 163.804C50.213 163.168 50.519 162.4 50.519 161.5C50.519 160.588 50.213 159.826 49.601 159.214C48.989 158.59 48.233 158.278 47.333 158.278C46.421 158.278 45.659 158.59 45.047 159.214C44.435 159.826 44.129 160.588 44.129 161.5C44.129 162.4 44.435 163.168 45.047 163.804C45.659 164.416 46.421 164.722 47.333 164.722ZM61.4056 158.548V157H62.9716V166H61.4056V164.452C60.6376 165.64 59.5036 166.234 58.0036 166.234C56.7316 166.234 55.6576 165.778 54.7816 164.866C53.8936 163.942 53.4496 162.82 53.4496 161.5C53.4496 160.192 53.8936 159.076 54.7816 158.152C55.6696 157.228 56.7436 156.766 58.0036 156.766C59.5036 156.766 60.6376 157.36 61.4056 158.548ZM58.2016 164.722C59.1136 164.722 59.8756 164.416 60.4876 163.804C61.0996 163.168 61.4056 162.4 61.4056 161.5C61.4056 160.588 61.0996 159.826 60.4876 159.214C59.8756 158.59 59.1136 158.278 58.2016 158.278C57.3016 158.278 56.5456 158.59 55.9336 159.214C55.3216 159.826 55.0156 160.588 55.0156 161.5C55.0156 162.4 55.3216 163.168 55.9336 163.804C56.5456 164.416 57.3016 164.722 58.2016 164.722ZM66.9103 157V158.512C67.4263 157.396 68.3623 156.838 69.7183 156.838V158.476C68.9503 158.44 68.2903 158.644 67.7383 159.088C67.1863 159.532 66.9103 160.246 66.9103 161.23V166H65.3442V157H66.9103ZM79.4405 164.056L82.0325 157H83.7065L80.0345 166.558C79.6385 167.578 79.0925 168.352 78.3965 168.88C77.7125 169.42 76.9265 169.66 76.0385 169.6V168.142C77.1425 168.226 77.9525 167.614 78.4685 166.306L78.6305 165.964L74.7065 157H76.3805L79.4405 164.056ZM92.2586 164.866C91.3466 165.778 90.2246 166.234 88.8926 166.234C87.5606 166.234 86.4386 165.778 85.5266 164.866C84.6146 163.954 84.1586 162.832 84.1586 161.5C84.1586 160.168 84.6146 159.046 85.5266 158.134C86.4386 157.222 87.5606 156.766 88.8926 156.766C90.2246 156.766 91.3466 157.222 92.2586 158.134C93.1826 159.058 93.6446 160.18 93.6446 161.5C93.6446 162.82 93.1826 163.942 92.2586 164.866ZM88.8926 164.704C89.7926 164.704 90.5486 164.398 91.1606 163.786C91.7726 163.174 92.0786 162.412 92.0786 161.5C92.0786 160.588 91.7726 159.826 91.1606 159.214C90.5486 158.602 89.7926 158.296 88.8926 158.296C88.0046 158.296 87.2546 158.602 86.6426 159.214C86.0306 159.826 85.7246 160.588 85.7246 161.5C85.7246 162.412 86.0306 163.174 86.6426 163.786C87.2546 164.398 88.0046 164.704 88.8926 164.704ZM101.354 158.044L96.7462 164.506H101.534V166H94.6042V164.956L99.1942 158.494H94.7842V157H101.354V158.044ZM104.193 155.362C103.893 155.362 103.641 155.26 103.437 155.056C103.233 154.852 103.131 154.606 103.131 154.318C103.131 154.03 103.233 153.784 103.437 153.58C103.641 153.364 103.893 153.256 104.193 153.256C104.481 153.256 104.727 153.364 104.931 153.58C105.135 153.784 105.237 154.03 105.237 154.318C105.237 154.606 105.135 154.852 104.931 155.056C104.727 155.26 104.481 155.362 104.193 155.362ZM104.967 166H103.401V157H104.967V166ZM108.688 159.43C108.688 160.006 109.282 160.456 110.47 160.78C110.914 160.876 111.286 160.978 111.586 161.086C111.898 161.182 112.234 161.332 112.594 161.536C112.966 161.74 113.248 162.01 113.44 162.346C113.632 162.682 113.728 163.078 113.728 163.534C113.728 164.35 113.41 165.004 112.774 165.496C112.138 165.988 111.334 166.234 110.362 166.234C109.498 166.234 108.748 166.048 108.112 165.676C107.488 165.292 107.044 164.776 106.78 164.128L108.13 163.354C108.274 163.786 108.544 164.128 108.94 164.38C109.336 164.632 109.81 164.758 110.362 164.758C110.902 164.758 111.334 164.656 111.658 164.452C111.982 164.248 112.144 163.942 112.144 163.534C112.144 162.922 111.55 162.478 110.362 162.202C109.966 162.094 109.666 162.01 109.462 161.95C109.258 161.89 108.976 161.782 108.616 161.626C108.268 161.47 108.004 161.308 107.824 161.14C107.644 160.96 107.476 160.726 107.32 160.438C107.176 160.138 107.104 159.808 107.104 159.448C107.104 158.668 107.404 158.026 108.004 157.522C108.616 157.018 109.378 156.766 110.29 156.766C111.022 156.766 111.67 156.934 112.234 157.27C112.81 157.594 113.242 158.05 113.53 158.638L112.216 159.376C111.892 158.608 111.25 158.224 110.29 158.224C109.834 158.224 109.45 158.332 109.138 158.548C108.838 158.764 108.688 159.058 108.688 159.43ZM119.977 156.766C121.033 156.766 121.879 157.102 122.515 157.774C123.151 158.434 123.469 159.334 123.469 160.474V166H121.903V160.564C121.903 159.844 121.705 159.28 121.309 158.872C120.913 158.464 120.367 158.26 119.671 158.26C118.867 158.26 118.231 158.512 117.763 159.016C117.295 159.508 117.061 160.246 117.061 161.23V166H115.495V153.4H117.061V158.296C117.685 157.276 118.657 156.766 119.977 156.766ZM126.645 166.198C126.321 166.198 126.045 166.084 125.817 165.856C125.589 165.628 125.475 165.352 125.475 165.028C125.475 164.704 125.589 164.428 125.817 164.2C126.045 163.972 126.321 163.858 126.645 163.858C126.981 163.858 127.257 163.972 127.473 164.2C127.701 164.428 127.815 164.704 127.815 165.028C127.815 165.352 127.701 165.628 127.473 165.856C127.257 166.084 126.981 166.198 126.645 166.198ZM131.022 166.198C130.698 166.198 130.422 166.084 130.194 165.856C129.966 165.628 129.852 165.352 129.852 165.028C129.852 164.704 129.966 164.428 130.194 164.2C130.422 163.972 130.698 163.858 131.022 163.858C131.358 163.858 131.634 163.972 131.85 164.2C132.078 164.428 132.192 164.704 132.192 165.028C132.192 165.352 132.078 165.628 131.85 165.856C131.634 166.084 131.358 166.198 131.022 166.198ZM135.399 166.198C135.075 166.198 134.799 166.084 134.571 165.856C134.343 165.628 134.229 165.352 134.229 165.028C134.229 164.704 134.343 164.428 134.571 164.2C134.799 163.972 135.075 163.858 135.399 163.858C135.735 163.858 136.011 163.972 136.227 164.2C136.455 164.428 136.569 164.704 136.569 165.028C136.569 165.352 136.455 165.628 136.227 165.856C136.011 166.084 135.735 166.198 135.399 166.198Z" fill="#3A3A3A" fill-opacity="0.4"/>
<defs>
<filter id="filter0_ii_3128_1276" x="-1" y="24" width="375" height="55" filterUnits="userSpaceOnUse" color-interpolation-filters="sRGB">
<feFlood flood-opacity="0" result="BackgroundImageFix"/>
<feBlend mode="normal" in="SourceGraphic" in2="BackgroundImageFix" result="shape"/>
<feColorMatrix in="SourceAlpha" type="matrix" values="0 0 0 0 0 0 0 0 0 0 0 0 0 0 0 0 0 0 127 0" result="hardAlpha"/>
<feOffset dx="4" dy="4"/>
<feGaussianBlur stdDeviation="2"/>
<feComposite in2="hardAlpha" operator="arithmetic" k2="-1" k3="1"/>
<feColorMatrix type="matrix" values="0 0 0 0 0 0 0 0 0 0 0 0 0 0 0 0 0 0 0.08 0"/>
<feBlend mode="normal" in2="shape" result="effect1_innerShadow_3128_1276"/>
<feColorMatrix in="SourceAlpha" type="matrix" values="0 0 0 0 0 0 0 0 0 0 0 0 0 0 0 0 0 0 127 0" result="hardAlpha"/>
<feOffset dx="-1" dy="-1"/>
<feGaussianBlur stdDeviation="2"/>
<feComposite in2="hardAlpha" operator="arithmetic" k2="-1" k3="1"/>
<feColorMatrix type="matrix" values="0 0 0 0 0 0 0 0 0 0 0 0 0 0 0 0 0 0 0.05 0"/>
<feBlend mode="normal" in2="effect1_innerShadow_3128_1276" result="effect2_innerShadow_3128_1276"/>
</filter>
<filter id="filter1_ii_3128_1276" x="429" y="24" width="375" height="55" filterUnits="userSpaceOnUse" color-interpolation-filters="sRGB">
<feFlood flood-opacity="0" result="BackgroundImageFix"/>
<feBlend mode="normal" in="SourceGraphic" in2="BackgroundImageFix" result="shape"/>
<feColorMatrix in="SourceAlpha" type="matrix" values="0 0 0 0 0 0 0 0 0 0 0 0 0 0 0 0 0 0 127 0" result="hardAlpha"/>
<feOffset dx="4" dy="4"/>
<feGaussianBlur stdDeviation="2"/>
<feComposite in2="hardAlpha" operator="arithmetic" k2="-1" k3="1"/>
<feColorMatrix type="matrix" values="0 0 0 0 0 0 0 0 0 0 0 0 0 0 0 0 0 0 0.08 0"/>
<feBlend mode="normal" in2="shape" result="effect1_innerShadow_3128_1276"/>
<feColorMatrix in="SourceAlpha" type="matrix" values="0 0 0 0 0 0 0 0 0 0 0 0 0 0 0 0 0 0 127 0" result="hardAlpha"/>
<feOffset dx="-1" dy="-1"/>
<feGaussianBlur stdDeviation="2"/>
<feComposite in2="hardAlpha" operator="arithmetic" k2="-1" k3="1"/>
<feColorMatrix type="matrix" values="0 0 0 0 0 0 0 0 0 0 0 0 0 0 0 0 0 0 0.05 0"/>
<feBlend mode="normal" in2="effect1_innerShadow_3128_1276" result="effect2_innerShadow_3128_1276"/>
</filter>
<filter id="filter2_ii_3128_1276" x="-1" y="129" width="805" height="135" filterUnits="userSpaceOnUse" color-interpolation-filters="sRGB">
<feFlood flood-opacity="0" result="BackgroundImageFix"/>
<feBlend mode="normal" in="SourceGraphic" in2="BackgroundImageFix" result="shape"/>
<feColorMatrix in="SourceAlpha" type="matrix" values="0 0 0 0 0 0 0 0 0 0 0 0 0 0 0 0 0 0 127 0" result="hardAlpha"/>
<feOffset dx="4" dy="4"/>
<feGaussianBlur stdDeviation="2"/>
<feComposite in2="hardAlpha" operator="arithmetic" k2="-1" k3="1"/>
<feColorMatrix type="matrix" values="0 0 0 0 0 0 0 0 0 0 0 0 0 0 0 0 0 0 0.08 0"/>
<feBlend mode="normal" in2="shape" result="effect1_innerShadow_3128_1276"/>
<feColorMatrix in="SourceAlpha" type="matrix" values="0 0 0 0 0 0 0 0 0 0 0 0 0 0 0 0 0 0 127 0" result="hardAlpha"/>
<feOffset dx="-1" dy="-1"/>
<feGaussianBlur stdDeviation="2"/>
<feComposite in2="hardAlpha" operator="arithmetic" k2="-1" k3="1"/>
<feColorMatrix type="matrix" values="0 0 0 0 0 0 0 0 0 0 0 0 0 0 0 0 0 0 0.05 0"/>
<feBlend mode="normal" in2="effect1_innerShadow_3128_1276" result="effect2_innerShadow_3128_1276"/>
</filter>
</defs>
</svg>
